<mxfile host="app.diagrams.net" modified="2022-09-13T15:09:56.975Z" agent="5.0 (Windows NT 10.0; WOW64) AppleWebKit/537.36 (KHTML, like Gecko) Chrome/104.0.5112.84 Safari/537.36" etag="jYP-hgu74RZ1OaOXH73z" version="20.3.0" type="github">
  <diagram id="-VwlHUIZw6k9aPsMQ_BG" name="Trang-2">
    <mxGraphModel dx="1378" dy="788" grid="1" gridSize="10" guides="1" tooltips="1" connect="1" arrows="1" fold="1" page="1" pageScale="1" pageWidth="827" pageHeight="1169" math="0" shadow="0">
      <root>
        <mxCell id="0" />
        <mxCell id="1" parent="0" />
        <mxCell id="3DkeI2gA3g5fwGXKC463-1" value="Start" style="ellipse;whiteSpace=wrap;html=1;" vertex="1" parent="1">
          <mxGeometry x="300" y="40" width="120" height="80" as="geometry" />
        </mxCell>
        <mxCell id="3DkeI2gA3g5fwGXKC463-2" value="Nhập vào random số M (0,9)" style="shape=parallelogram;perimeter=parallelogramPerimeter;whiteSpace=wrap;html=1;fixedSize=1;" vertex="1" parent="1">
          <mxGeometry x="260" y="160" width="200" height="60" as="geometry" />
        </mxCell>
        <mxCell id="3DkeI2gA3g5fwGXKC463-3" value="Nhập vào số N" style="shape=parallelogram;perimeter=parallelogramPerimeter;whiteSpace=wrap;html=1;fixedSize=1;" vertex="1" parent="1">
          <mxGeometry x="255" y="280" width="210" height="60" as="geometry" />
        </mxCell>
        <mxCell id="3DkeI2gA3g5fwGXKC463-4" value="" style="endArrow=classic;html=1;rounded=0;" edge="1" parent="1">
          <mxGeometry width="50" height="50" relative="1" as="geometry">
            <mxPoint x="359.5" y="220" as="sourcePoint" />
            <mxPoint x="359.5" y="280" as="targetPoint" />
          </mxGeometry>
        </mxCell>
        <mxCell id="3DkeI2gA3g5fwGXKC463-5" value="" style="endArrow=classic;html=1;rounded=0;" edge="1" parent="1">
          <mxGeometry width="50" height="50" relative="1" as="geometry">
            <mxPoint x="359.5" y="120" as="sourcePoint" />
            <mxPoint x="360" y="160" as="targetPoint" />
          </mxGeometry>
        </mxCell>
        <mxCell id="3DkeI2gA3g5fwGXKC463-6" value="If N == M" style="rhombus;whiteSpace=wrap;html=1;" vertex="1" parent="1">
          <mxGeometry x="210" y="400" width="300" height="80" as="geometry" />
        </mxCell>
        <mxCell id="3DkeI2gA3g5fwGXKC463-7" value="" style="endArrow=classic;html=1;rounded=0;" edge="1" parent="1">
          <mxGeometry width="50" height="50" relative="1" as="geometry">
            <mxPoint x="359.5" y="340" as="sourcePoint" />
            <mxPoint x="359.5" y="400" as="targetPoint" />
          </mxGeometry>
        </mxCell>
        <mxCell id="3DkeI2gA3g5fwGXKC463-8" value="" style="endArrow=classic;html=1;rounded=0;" edge="1" parent="1">
          <mxGeometry width="50" height="50" relative="1" as="geometry">
            <mxPoint x="210" y="439.5" as="sourcePoint" />
            <mxPoint x="150" y="439.5" as="targetPoint" />
            <Array as="points">
              <mxPoint x="190" y="439.5" />
            </Array>
          </mxGeometry>
        </mxCell>
        <mxCell id="3DkeI2gA3g5fwGXKC463-9" value="" style="endArrow=classic;html=1;rounded=0;" edge="1" parent="1">
          <mxGeometry width="50" height="50" relative="1" as="geometry">
            <mxPoint x="510" y="439.5" as="sourcePoint" />
            <mxPoint x="590" y="439.5" as="targetPoint" />
          </mxGeometry>
        </mxCell>
        <mxCell id="3DkeI2gA3g5fwGXKC463-10" value="YES" style="text;html=1;align=center;verticalAlign=middle;resizable=0;points=[];autosize=1;strokeColor=none;fillColor=none;" vertex="1" parent="1">
          <mxGeometry x="165" y="415" width="50" height="30" as="geometry" />
        </mxCell>
        <mxCell id="3DkeI2gA3g5fwGXKC463-11" value="NO" style="text;html=1;align=center;verticalAlign=middle;resizable=0;points=[];autosize=1;strokeColor=none;fillColor=none;" vertex="1" parent="1">
          <mxGeometry x="520" y="415" width="40" height="30" as="geometry" />
        </mxCell>
        <mxCell id="3DkeI2gA3g5fwGXKC463-12" value="" style="endArrow=classic;html=1;rounded=0;" edge="1" parent="1" target="3DkeI2gA3g5fwGXKC463-13">
          <mxGeometry width="50" height="50" relative="1" as="geometry">
            <mxPoint x="359.5" y="480" as="sourcePoint" />
            <mxPoint x="359.5" y="530" as="targetPoint" />
          </mxGeometry>
        </mxCell>
        <mxCell id="3DkeI2gA3g5fwGXKC463-13" value="End&lt;br&gt;" style="ellipse;whiteSpace=wrap;html=1;" vertex="1" parent="1">
          <mxGeometry x="300" y="550" width="120" height="80" as="geometry" />
        </mxCell>
        <mxCell id="3DkeI2gA3g5fwGXKC463-14" value="output &quot;Đúng&quot;" style="shape=parallelogram;perimeter=parallelogramPerimeter;whiteSpace=wrap;html=1;fixedSize=1;" vertex="1" parent="1">
          <mxGeometry x="40" y="410" width="120" height="60" as="geometry" />
        </mxCell>
        <mxCell id="3DkeI2gA3g5fwGXKC463-15" value="Output &quot;Sai&quot;" style="shape=parallelogram;perimeter=parallelogramPerimeter;whiteSpace=wrap;html=1;fixedSize=1;" vertex="1" parent="1">
          <mxGeometry x="580" y="410" width="120" height="60" as="geometry" />
        </mxCell>
        <mxCell id="3DkeI2gA3g5fwGXKC463-20" value="" style="endArrow=classic;html=1;rounded=0;" edge="1" parent="1">
          <mxGeometry width="50" height="50" relative="1" as="geometry">
            <mxPoint x="90" y="590" as="sourcePoint" />
            <mxPoint x="300" y="589.5" as="targetPoint" />
          </mxGeometry>
        </mxCell>
        <mxCell id="3DkeI2gA3g5fwGXKC463-21" value="" style="endArrow=none;html=1;rounded=0;" edge="1" parent="1">
          <mxGeometry width="50" height="50" relative="1" as="geometry">
            <mxPoint x="90" y="590" as="sourcePoint" />
            <mxPoint x="90" y="470" as="targetPoint" />
          </mxGeometry>
        </mxCell>
        <mxCell id="3DkeI2gA3g5fwGXKC463-22" value="" style="endArrow=classic;html=1;rounded=0;" edge="1" parent="1">
          <mxGeometry width="50" height="50" relative="1" as="geometry">
            <mxPoint x="640" y="590" as="sourcePoint" />
            <mxPoint x="420" y="589.5" as="targetPoint" />
          </mxGeometry>
        </mxCell>
        <mxCell id="3DkeI2gA3g5fwGXKC463-23" value="" style="endArrow=none;html=1;rounded=0;" edge="1" parent="1">
          <mxGeometry width="50" height="50" relative="1" as="geometry">
            <mxPoint x="640" y="590" as="sourcePoint" />
            <mxPoint x="639.5" y="470" as="targetPoint" />
          </mxGeometry>
        </mxCell>
        <mxCell id="3DkeI2gA3g5fwGXKC463-24" value="Start&lt;br&gt;Nhập vào random số M từ 0 đến 9&lt;br&gt;Nhập và số N&lt;br&gt;if N == M:&lt;br&gt;output &quot;đúng&quot;&lt;br&gt;else:&lt;br&gt;output &quot; sai&quot;&lt;br&gt;end&lt;br&gt;" style="text;html=1;align=center;verticalAlign=middle;resizable=0;points=[];autosize=1;strokeColor=none;fillColor=none;" vertex="1" parent="1">
          <mxGeometry x="495" y="25" width="210" height="130" as="geometry" />
        </mxCell>
      </root>
    </mxGraphModel>
  </diagram>
</mxfile>
